<?xml version="1.0" encoding="utf-8"?>
<!-- Generator: Adobe Illustrator 27.1.1, SVG Export Plug-In . SVG Version: 6.00 Build 0)  -->
<svg version="1.1" id="Calque_1" xmlns="http://www.w3.org/2000/svg" xmlns:xlink="http://www.w3.org/1999/xlink" x="0px" y="0px"
	 viewBox="0 0 1056.2 1056.2" style="enable-background:new 0 0 1056.2 1056.2;" xml:space="preserve">
<style type="text/css">
	.st0{fill:#FFFFFF;}
	.st1{enable-background:new    ;}
</style>
<g id="Logo">
	<g>
		<polygon class="st0" points="632.1,423.2 632.1,522.3 736.1,423.2 		"/>
	</g>
	<g>
		<rect x="845.6" y="381.1" class="st0" width="157.9" height="84.2"/>
	</g>
	<g>
		<rect x="632.1" y="212.5" class="st0" width="424.1" height="84.2"/>
	</g>
	<g>
		<rect x="845.6" y="549.5" class="st0" width="210.6" height="84.5"/>
	</g>
	<g>
		<path class="st0" d="M632.1,721.1L471.7,568.4c38.9-40.4,58.4-88.7,58.4-144.9s-20.7-107.6-62.1-149s-91-62.1-149-62.1
			s-107.6,20.7-148.7,62.1s-61.8,91-61.8,149s20.7,107.6,61.8,148.7c41.1,41.1,90.8,61.8,148.7,61.8c0.1,0,0.2,0,0.3,0v320.3h0v-0.9
			l104.4-99.6v-188L736.5,964V575.5l-104.5,99.6L632.1,721.1L632.1,721.1z M410.4,510l-91.1-86.8v125.9c-0.1,0-0.2,0-0.3,0
			c-34.9,0-64.7-12.4-89.2-37c-24.6-24.6-37-54.3-37-89.2s12.4-64.4,37-89.2c24.6-24.8,54.3-37.2,89.2-37.2s64.4,12.4,89.2,37.2
			c24.8,24.8,37.2,54.6,37.2,89.2S433.8,485.8,410.4,510z"/>
	</g>
	<g class="st1">
		<path class="st0" d="M54,310.7c9,2.9,15.7,12.6,11.9,24.3l-7.1,22L0,337.9l5.2-16c3.3-10.1,12.8-14.6,20.6-12.1
			c6.3,2.1,9.1,7.8,8.4,10C36.4,313.2,44.9,307.7,54,310.7z M11.9,331.6l14.6,4.8l2.3-7.3c1.5-4.5-0.5-8.9-4.7-10.3
			s-8.5,1.3-9.9,5.4L11.9,331.6z M50.5,319.5c-4.4-1.4-9.8,1-11.9,7.7L34.7,339l18,5.9l3.9-12C58.3,327.6,56.1,321.4,50.5,319.5z"/>
	</g>
	<g class="st1">
		<path class="st0" d="M31.7,281.6l14.1,7.2L56.5,268l8.6,4.4l-10.7,20.8l15.2,7.8L82,277l8.6,4.4l-16.8,32.7l-54.9-28.3l16.8-32.7
			l8.5,4.4L31.7,281.6z"/>
	</g>
	<g class="st1">
		<path class="st0" d="M91.4,196.9l-10.9,12.5l39.3,34.2l-6.4,7.3l-39.3-34.2l-10.9,12.5l-7.3-6.3l28.1-32.3L91.4,196.9z"/>
	</g>
	<g class="st1">
		<path class="st0" d="M132.6,149.5l39,47.9l-7.5,6.1l-16.5-20.2l-20.8,16.9l16.5,20.2l-7.5,6.1l-39-47.9l7.5-6.1l16.4,20.2
			l20.8-16.9l-16.4-20.2L132.6,149.5z"/>
	</g>
	<g class="st1">
		<path class="st0" d="M155.6,147.4l7.8,13.7l20.3-11.6l4.8,8.4l-20.3,11.6l8.5,14.8l23.5-13.4l4.8,8.4l-32,18.2L142.4,144l32-18.2
			l4.7,8.3L155.6,147.4z"/>
	</g>
	<g class="st1">
		<path class="st0" d="M217.9,140.1c-4.3-17.1,6.2-34.5,23.2-38.8c17-4.2,34.5,6.2,38.8,23.3c4.2,17-6.3,34.3-23.3,38.6
			C239.5,167.5,222.2,157.1,217.9,140.1z M270.4,127c-3-11.9-15.1-19.1-26.9-16.2c-11.8,2.9-19,15-16.1,26.9
			c2.9,11.8,15,19,26.8,16.1C266,150.8,273.3,138.8,270.4,127z"/>
	</g>
	<g class="st1">
		<path class="st0" d="M337,92.2l1.9,63l-0.5,0l-40.8-40l1.2,40.2l-9.7,0.3l-1.9-62.9l0.5,0l40.7,40l-1.2-40.2L337,92.2z"/>
	</g>
	<g class="st1">
		<path class="st0" d="M359.4,105.1l-2.3,15.7l23.1,3.3l-1.4,9.6l-23.1-3.3l-2.4,16.9l26.8,3.9l-1.4,9.6l-36.4-5.2l8.8-61.1
			l36.4,5.2l-1.4,9.4L359.4,105.1z"/>
	</g>
</g>
</svg>
